<svg width="320" height="330" viewBox="0 0 320 330" fill="none" xmlns="http://www.w3.org/2000/svg">
<rect width="320" height="330" rx="60" fill="#1E1E1E"/>
<path d="M131.689 149C109.694 155.284 96.598 167.935 90.7024 177.137C90.0838 178.102 88.1107 177.534 88.248 176.396C93.4197 133.516 126.518 118.905 143.189 117L214.189 107.5C220.189 106.5 234.789 100.4 245.189 84C255.455 67.8111 252.924 63.2828 250.292 63.0086C250.224 63.0014 250.158 63.0046 250.09 63.0144C238.555 64.6864 215.386 68.1012 214.189 68.5C212.689 69 153.689 76 145.189 77.5C138.389 78.7 129.356 81 125.689 82C91.1893 90.5 69.1893 131.5 68.1893 160V218.5C69.1893 227.5 61.6893 276.5 75.1893 265C88.6893 253.5 88.6893 245.5 95.1893 227C101.689 208.5 128 186 141 183C154 180 186.689 175.7 189.689 174.5C193 173.176 200.689 168 208.189 159C213.908 152.138 216.901 141.097 215.438 136.613C215.313 136.23 214.934 136.017 214.532 136.045C192.526 137.57 159.412 141.079 131.689 149Z" fill="#A3E634"/>
<circle cx="160" cy="237" r="30" fill="#A3E634"/>
</svg>
