<svg width="237" height="244" viewBox="0 0 237 244" fill="none" xmlns="http://www.w3.org/2000/svg">
<rect width="237" height="244" rx="60" fill="#1E1E1E"/>
<path d="M95.9347 109.714C79.5279 114.402 69.4096 123.588 64.443 130.703C63.7865 131.643 61.7507 131.039 61.9107 129.903C66.5172 97.2079 92.0435 85.9977 104.989 84.5182L160.893 77.0381C165.617 76.2507 177.113 71.4478 185.302 58.5348C193.356 45.833 191.406 42.2479 189.341 42.0092C189.273 42.0012 189.207 42.0046 189.139 42.0145C180.05 43.332 161.834 46.0168 160.893 46.3306C159.712 46.7242 113.257 52.2359 106.564 53.4169C101.21 54.3618 94.0975 56.1727 91.2104 56.9601C64.046 63.6528 46.7238 95.9351 45.9365 118.375V164.437C46.7238 171.523 40.8185 210.104 51.4481 201.049C62.0776 191.995 62.0776 185.696 67.1955 171.129C72.3135 156.563 93.0298 138.847 103.266 136.485C113.501 134.123 139.24 130.737 141.602 129.792C144.209 128.749 150.263 124.674 156.169 117.588C160.614 112.253 162.968 103.712 161.918 100.098C161.806 99.7109 161.425 99.4956 161.022 99.5236C143.695 100.729 117.704 103.494 95.9347 109.714Z" fill="#A3E634"/>
<circle cx="118.226" cy="179.003" r="23.6212" fill="#A3E634"/>
</svg>
